<?xml version="1.0" encoding="utf-8"?>
<!-- Generator: Adobe Illustrator 27.0.0, SVG Export Plug-In . SVG Version: 6.00 Build 0)  -->
<svg version="1.1" xmlns="http://www.w3.org/2000/svg" xmlns:xlink="http://www.w3.org/1999/xlink" x="0px" y="0px"
	 viewBox="0 0 500 500" style="enable-background:new 0 0 500 500;" xml:space="preserve">
<style type="text/css">
	.st0{display:none;}
	.st1{display:inline;fill:none;stroke:#FFFFFF;stroke-width:35;stroke-miterlimit:10;}
	.st2{fill:none;stroke:#FFFFFF;stroke-width:35;stroke-miterlimit:10;}
	.st3{fill:#FFFFFF;}
	.st4{fill:none;stroke:#000000;stroke-width:35;stroke-miterlimit:10;}
</style>
<g id="Layer_1" class="st0">
	<path class="st1" d="M213.55,333.76L213.55,333.76c-66.46,0-120.33-53.87-120.33-120.33v0c0-66.45,53.87-120.33,120.33-120.33h0
		c66.45,0,120.33,53.87,120.33,120.33v0C333.88,279.88,280,333.76,213.55,333.76z"/>
	<line class="st1" x1="294.62" y1="294.55" x2="406.78" y2="406.9"/>
</g>
<g id="Layer_2">
	<path class="st2" d="M374,250c0,20.93-39.04,39.04-73.57,46.28c-40.04,8.39-59.86,7.6-97.59-2.41
		c-29.22-7.76-68.69-25.08-68.69-43.87c0-82.98,53.69-150.24,119.93-150.24S374,167.02,374,250z"/>
	<g>
		<path class="st3" d="M104.99,306.86c73.66-41.59,165.31-48.84,245.43-22.57c18.34,6.15,36.15,13.79,52.83,23.55
			c0,0-12.63,32.64-12.63,32.64c-8.47-1.33-17.61-3.53-26.05-4.93c-36.32-7.08-73.64-11.72-110.5-11.84
			c-34.01-0.28-68.34,3.6-102,9.42c-11.54,2.07-22.98,4.44-34.63,6.44C117.43,339.57,104.99,306.86,104.99,306.86L104.99,306.86z"/>
	</g>
	<g>
		<polygon class="st3" points="236.57,99.76 245,58 263.14,58 271.57,99.76 236.57,99.76 		"/>
	</g>
	<path class="st2" d="M253,398c-23.62-7.9-47.24-15.81-70.86-23.71c0-5.84,4.73-10.57,10.57-10.57h121.14
		c5.84,0,10.57,4.73,10.57,10.57C300.62,382.19,276.81,390.1,253,398z"/>
	<path class="st4" d="M564.43,454.57"/>
</g>
</svg>
